<mxfile host="app.diagrams.net" modified="2023-01-23T03:55:52.175Z" agent="5.0 (Windows NT 10.0; Win64; x64) AppleWebKit/537.36 (KHTML, like Gecko) Chrome/109.0.0.0 Safari/537.36 Edg/109.0.1518.61" etag="GHASkmJcBCqCqI-vWPDe" version="20.8.10" type="github">
  <diagram name="第 1 页" id="PObqsnd0WLgPGz9udKNB">
    <mxGraphModel dx="940" dy="781" grid="1" gridSize="10" guides="1" tooltips="1" connect="1" arrows="1" fold="1" page="1" pageScale="1" pageWidth="827" pageHeight="1169" math="0" shadow="0">
      <root>
        <mxCell id="0" />
        <mxCell id="1" parent="0" />
        <mxCell id="PneFVJ0IGzdfHMe4KEix-1" value="" style="rounded=0;whiteSpace=wrap;html=1;dashed=1;" vertex="1" parent="1">
          <mxGeometry x="140" y="100" width="610" height="310" as="geometry" />
        </mxCell>
        <mxCell id="PneFVJ0IGzdfHMe4KEix-3" value="Frondend&lt;br&gt;LB" style="rounded=1;whiteSpace=wrap;html=1;" vertex="1" parent="1">
          <mxGeometry x="169" y="210" width="61" height="60" as="geometry" />
        </mxCell>
        <mxCell id="PneFVJ0IGzdfHMe4KEix-5" value="region" style="text;html=1;strokeColor=none;fillColor=none;align=center;verticalAlign=middle;whiteSpace=wrap;rounded=0;" vertex="1" parent="1">
          <mxGeometry x="140" y="100" width="60" height="30" as="geometry" />
        </mxCell>
        <mxCell id="PneFVJ0IGzdfHMe4KEix-6" value="" style="rounded=0;whiteSpace=wrap;html=1;dashed=1;" vertex="1" parent="1">
          <mxGeometry x="253" y="150" width="480" height="150" as="geometry" />
        </mxCell>
        <mxCell id="PneFVJ0IGzdfHMe4KEix-7" value="" style="rounded=0;whiteSpace=wrap;html=1;dashed=1;" vertex="1" parent="1">
          <mxGeometry x="253" y="320" width="477" height="30" as="geometry" />
        </mxCell>
        <mxCell id="PneFVJ0IGzdfHMe4KEix-8" value="" style="rounded=0;whiteSpace=wrap;html=1;dashed=1;" vertex="1" parent="1">
          <mxGeometry x="253" y="370" width="477" height="30" as="geometry" />
        </mxCell>
        <mxCell id="PneFVJ0IGzdfHMe4KEix-15" style="edgeStyle=orthogonalEdgeStyle;rounded=0;orthogonalLoop=1;jettySize=auto;html=1;entryX=0;entryY=0.5;entryDx=0;entryDy=0;" edge="1" parent="1" target="PneFVJ0IGzdfHMe4KEix-11">
          <mxGeometry relative="1" as="geometry">
            <mxPoint x="351" y="210" as="sourcePoint" />
            <Array as="points">
              <mxPoint x="351" y="180" />
            </Array>
          </mxGeometry>
        </mxCell>
        <mxCell id="PneFVJ0IGzdfHMe4KEix-45" style="edgeStyle=orthogonalEdgeStyle;rounded=0;orthogonalLoop=1;jettySize=auto;html=1;entryX=1;entryY=0.5;entryDx=0;entryDy=0;strokeColor=#000000;fontSize=16;" edge="1" parent="1" source="PneFVJ0IGzdfHMe4KEix-9" target="PneFVJ0IGzdfHMe4KEix-10">
          <mxGeometry relative="1" as="geometry" />
        </mxCell>
        <mxCell id="PneFVJ0IGzdfHMe4KEix-9" value="Frondend&lt;br&gt;invoke svc" style="rounded=1;whiteSpace=wrap;html=1;" vertex="1" parent="1">
          <mxGeometry x="310" y="210" width="70" height="40" as="geometry" />
        </mxCell>
        <mxCell id="PneFVJ0IGzdfHMe4KEix-10" value="auth" style="rounded=1;whiteSpace=wrap;html=1;" vertex="1" parent="1">
          <mxGeometry x="283" y="165" width="41" height="30" as="geometry" />
        </mxCell>
        <mxCell id="PneFVJ0IGzdfHMe4KEix-11" value="counting" style="rounded=1;whiteSpace=wrap;html=1;" vertex="1" parent="1">
          <mxGeometry x="372" y="160" width="60" height="40" as="geometry" />
        </mxCell>
        <mxCell id="PneFVJ0IGzdfHMe4KEix-12" value="assignment" style="rounded=1;whiteSpace=wrap;html=1;" vertex="1" parent="1">
          <mxGeometry x="462" y="180" width="70" height="40" as="geometry" />
        </mxCell>
        <mxCell id="PneFVJ0IGzdfHMe4KEix-18" value="" style="endArrow=classic;html=1;rounded=0;entryX=0;entryY=0.5;entryDx=0;entryDy=0;exitX=1;exitY=0.5;exitDx=0;exitDy=0;" edge="1" parent="1" source="PneFVJ0IGzdfHMe4KEix-9" target="PneFVJ0IGzdfHMe4KEix-12">
          <mxGeometry width="50" height="50" relative="1" as="geometry">
            <mxPoint x="391" y="220" as="sourcePoint" />
            <mxPoint x="351" y="269" as="targetPoint" />
          </mxGeometry>
        </mxCell>
        <mxCell id="PneFVJ0IGzdfHMe4KEix-19" value="placement" style="rounded=1;whiteSpace=wrap;html=1;" vertex="1" parent="1">
          <mxGeometry x="561" y="160" width="70" height="40" as="geometry" />
        </mxCell>
        <mxCell id="PneFVJ0IGzdfHMe4KEix-20" value="" style="endArrow=classic;html=1;rounded=0;entryX=0;entryY=0.5;entryDx=0;entryDy=0;" edge="1" parent="1" target="PneFVJ0IGzdfHMe4KEix-3">
          <mxGeometry width="50" height="50" relative="1" as="geometry">
            <mxPoint x="60" y="240" as="sourcePoint" />
            <mxPoint x="490" y="300" as="targetPoint" />
          </mxGeometry>
        </mxCell>
        <mxCell id="PneFVJ0IGzdfHMe4KEix-21" value="" style="outlineConnect=0;dashed=0;verticalLabelPosition=bottom;verticalAlign=top;align=center;html=1;shape=mxgraph.aws3.android;fillColor=#205E00;gradientColor=none;" vertex="1" parent="1">
          <mxGeometry x="100" y="196" width="30.5" height="34" as="geometry" />
        </mxCell>
        <mxCell id="PneFVJ0IGzdfHMe4KEix-22" value="&lt;font style=&quot;font-size: 16px;&quot;&gt;invoke&lt;/font&gt;" style="text;html=1;strokeColor=none;fillColor=none;align=center;verticalAlign=middle;whiteSpace=wrap;rounded=0;" vertex="1" parent="1">
          <mxGeometry x="67" y="248" width="60" height="30" as="geometry" />
        </mxCell>
        <mxCell id="PneFVJ0IGzdfHMe4KEix-23" value="control plane svc" style="rounded=1;whiteSpace=wrap;html=1;" vertex="1" parent="1">
          <mxGeometry x="391" y="250" width="70" height="40" as="geometry" />
        </mxCell>
        <mxCell id="PneFVJ0IGzdfHMe4KEix-24" value="" style="endArrow=classic;startArrow=classic;html=1;rounded=0;fontSize=16;exitX=0.5;exitY=1;exitDx=0;exitDy=0;entryX=0;entryY=0.5;entryDx=0;entryDy=0;fillColor=#fff2cc;strokeColor=#999900;" edge="1" parent="1">
          <mxGeometry width="50" height="50" relative="1" as="geometry">
            <mxPoint x="346" y="250" as="sourcePoint" />
            <mxPoint x="392" y="270" as="targetPoint" />
          </mxGeometry>
        </mxCell>
        <mxCell id="PneFVJ0IGzdfHMe4KEix-25" value="" style="endArrow=classic;html=1;rounded=0;fontSize=16;entryX=0.5;entryY=1;entryDx=0;entryDy=0;fillColor=#fff2cc;strokeColor=#999900;" edge="1" parent="1" target="PneFVJ0IGzdfHMe4KEix-12">
          <mxGeometry width="50" height="50" relative="1" as="geometry">
            <mxPoint x="461" y="270" as="sourcePoint" />
            <mxPoint x="441" y="335" as="targetPoint" />
          </mxGeometry>
        </mxCell>
        <mxCell id="PneFVJ0IGzdfHMe4KEix-26" value="" style="endArrow=classic;html=1;rounded=0;entryX=0;entryY=0.5;entryDx=0;entryDy=0;exitX=1;exitY=0.5;exitDx=0;exitDy=0;strokeColor=#4C0099;" edge="1" parent="1" source="PneFVJ0IGzdfHMe4KEix-12" target="PneFVJ0IGzdfHMe4KEix-19">
          <mxGeometry width="50" height="50" relative="1" as="geometry">
            <mxPoint x="391" y="230" as="sourcePoint" />
            <mxPoint x="472" y="210" as="targetPoint" />
          </mxGeometry>
        </mxCell>
        <mxCell id="PneFVJ0IGzdfHMe4KEix-28" value="" style="sketch=0;points=[[0,0,0],[0.25,0,0],[0.5,0,0],[0.75,0,0],[1,0,0],[0,1,0],[0.25,1,0],[0.5,1,0],[0.75,1,0],[1,1,0],[0,0.25,0],[0,0.5,0],[0,0.75,0],[1,0.25,0],[1,0.5,0],[1,0.75,0]];outlineConnect=0;fontColor=#232F3E;gradientColor=none;gradientDirection=north;fillColor=#949494;strokeColor=#ffffff;dashed=0;verticalLabelPosition=bottom;verticalAlign=top;align=center;html=1;fontSize=12;fontStyle=0;aspect=fixed;shape=mxgraph.aws4.resourceIcon;resIcon=mxgraph.aws4.ec2;" vertex="1" parent="1">
          <mxGeometry x="663" y="200" width="28" height="28" as="geometry" />
        </mxCell>
        <mxCell id="PneFVJ0IGzdfHMe4KEix-30" value="" style="sketch=0;points=[[0,0,0],[0.25,0,0],[0.5,0,0],[0.75,0,0],[1,0,0],[0,1,0],[0.25,1,0],[0.5,1,0],[0.75,1,0],[1,1,0],[0,0.25,0],[0,0.5,0],[0,0.75,0],[1,0.25,0],[1,0.5,0],[1,0.75,0]];outlineConnect=0;fontColor=#232F3E;gradientColor=none;gradientDirection=north;fillColor=#949494;strokeColor=#ffffff;dashed=0;verticalLabelPosition=bottom;verticalAlign=top;align=center;html=1;fontSize=12;fontStyle=0;aspect=fixed;shape=mxgraph.aws4.resourceIcon;resIcon=mxgraph.aws4.ec2;" vertex="1" parent="1">
          <mxGeometry x="698" y="200" width="28" height="28" as="geometry" />
        </mxCell>
        <mxCell id="PneFVJ0IGzdfHMe4KEix-33" value="&lt;font face=&quot;Times New Roman&quot;&gt;Worker&lt;/font&gt;" style="sketch=0;points=[[0,0,0],[0.25,0,0],[0.5,0,0],[0.75,0,0],[1,0,0],[0,1,0],[0.25,1,0],[0.5,1,0],[0.75,1,0],[1,1,0],[0,0.25,0],[0,0.5,0],[0,0.75,0],[1,0.25,0],[1,0.5,0],[1,0.75,0]];outlineConnect=0;fontColor=#232F3E;gradientColor=none;gradientDirection=north;fillColor=#949494;strokeColor=#ffffff;dashed=0;verticalLabelPosition=bottom;verticalAlign=top;align=center;html=1;fontSize=12;fontStyle=0;aspect=fixed;shape=mxgraph.aws4.resourceIcon;resIcon=mxgraph.aws4.ec2;" vertex="1" parent="1">
          <mxGeometry x="663" y="234" width="28" height="28" as="geometry" />
        </mxCell>
        <mxCell id="PneFVJ0IGzdfHMe4KEix-34" value="" style="sketch=0;points=[[0,0,0],[0.25,0,0],[0.5,0,0],[0.75,0,0],[1,0,0],[0,1,0],[0.25,1,0],[0.5,1,0],[0.75,1,0],[1,1,0],[0,0.25,0],[0,0.5,0],[0,0.75,0],[1,0.25,0],[1,0.5,0],[1,0.75,0]];outlineConnect=0;fontColor=#232F3E;gradientColor=none;gradientDirection=north;fillColor=#949494;strokeColor=#ffffff;dashed=0;verticalLabelPosition=bottom;verticalAlign=top;align=center;html=1;fontSize=12;fontStyle=0;aspect=fixed;shape=mxgraph.aws4.resourceIcon;resIcon=mxgraph.aws4.ec2;" vertex="1" parent="1">
          <mxGeometry x="698" y="234" width="28" height="28" as="geometry" />
        </mxCell>
        <mxCell id="PneFVJ0IGzdfHMe4KEix-35" value="exec env" style="text;html=1;strokeColor=none;fillColor=none;align=center;verticalAlign=middle;whiteSpace=wrap;rounded=0;" vertex="1" parent="1">
          <mxGeometry x="662" y="170" width="60" height="30" as="geometry" />
        </mxCell>
        <mxCell id="PneFVJ0IGzdfHMe4KEix-36" value="" style="endArrow=classic;html=1;rounded=0;fontSize=16;exitX=1;exitY=0.5;exitDx=0;exitDy=0;entryX=0;entryY=0.5;entryDx=0;entryDy=0;entryPerimeter=0;strokeColor=#4C0099;" edge="1" parent="1" source="PneFVJ0IGzdfHMe4KEix-19" target="PneFVJ0IGzdfHMe4KEix-33">
          <mxGeometry width="50" height="50" relative="1" as="geometry">
            <mxPoint x="391" y="340" as="sourcePoint" />
            <mxPoint x="651" y="248" as="targetPoint" />
          </mxGeometry>
        </mxCell>
        <mxCell id="PneFVJ0IGzdfHMe4KEix-37" value="" style="endArrow=classic;html=1;rounded=0;fontSize=16;entryX=0;entryY=0.5;entryDx=0;entryDy=0;entryPerimeter=0;exitX=1;exitY=0.5;exitDx=0;exitDy=0;strokeColor=#4C0099;" edge="1" parent="1" source="PneFVJ0IGzdfHMe4KEix-12" target="PneFVJ0IGzdfHMe4KEix-33">
          <mxGeometry width="50" height="50" relative="1" as="geometry">
            <mxPoint x="391" y="340" as="sourcePoint" />
            <mxPoint x="441" y="290" as="targetPoint" />
          </mxGeometry>
        </mxCell>
        <mxCell id="PneFVJ0IGzdfHMe4KEix-39" value="" style="endArrow=classic;html=1;rounded=0;strokeColor=#000000;fontSize=16;entryX=0;entryY=0.5;entryDx=0;entryDy=0;entryPerimeter=0;exitX=1;exitY=0.5;exitDx=0;exitDy=0;" edge="1" parent="1" source="PneFVJ0IGzdfHMe4KEix-9" target="PneFVJ0IGzdfHMe4KEix-33">
          <mxGeometry width="50" height="50" relative="1" as="geometry">
            <mxPoint x="391" y="230" as="sourcePoint" />
            <mxPoint x="482.69811320754707" y="427" as="targetPoint" />
          </mxGeometry>
        </mxCell>
        <mxCell id="PneFVJ0IGzdfHMe4KEix-40" value="AZ1" style="text;html=1;strokeColor=none;fillColor=none;align=center;verticalAlign=middle;whiteSpace=wrap;rounded=0;" vertex="1" parent="1">
          <mxGeometry x="243" y="150" width="50" height="30" as="geometry" />
        </mxCell>
        <mxCell id="PneFVJ0IGzdfHMe4KEix-46" value="" style="shape=image;html=1;verticalAlign=top;verticalLabelPosition=bottom;labelBackgroundColor=#ffffff;imageAspect=0;aspect=fixed;image=https://cdn2.iconfinder.com/data/icons/web-development-and-studio/512/653_Company_employee_group_people_team-128.png;dashed=1;dashPattern=8 8;fontSize=16;fillColor=#949494;gradientColor=none;" vertex="1" parent="1">
          <mxGeometry x="60" y="196" width="35" height="35" as="geometry" />
        </mxCell>
        <mxCell id="PneFVJ0IGzdfHMe4KEix-47" value="" style="endArrow=classic;html=1;rounded=0;strokeColor=#000000;fontSize=16;entryX=0;entryY=0.5;entryDx=0;entryDy=0;exitX=1;exitY=0.5;exitDx=0;exitDy=0;" edge="1" parent="1" source="PneFVJ0IGzdfHMe4KEix-3" target="PneFVJ0IGzdfHMe4KEix-9">
          <mxGeometry width="50" height="50" relative="1" as="geometry">
            <mxPoint x="440" y="340" as="sourcePoint" />
            <mxPoint x="490" y="290" as="targetPoint" />
          </mxGeometry>
        </mxCell>
        <mxCell id="PneFVJ0IGzdfHMe4KEix-49" value="AZ2" style="text;html=1;strokeColor=none;fillColor=none;align=center;verticalAlign=middle;whiteSpace=wrap;rounded=0;" vertex="1" parent="1">
          <mxGeometry x="253" y="320" width="27" height="30" as="geometry" />
        </mxCell>
        <mxCell id="PneFVJ0IGzdfHMe4KEix-50" value="AZ3" style="text;html=1;strokeColor=none;fillColor=none;align=center;verticalAlign=middle;whiteSpace=wrap;rounded=0;" vertex="1" parent="1">
          <mxGeometry x="253" y="370" width="27" height="30" as="geometry" />
        </mxCell>
      </root>
    </mxGraphModel>
  </diagram>
</mxfile>
